<svg width="1216" height="338" viewBox="0 0 1216 338" fill="none" xmlns="http://www.w3.org/2000/svg">
<path fill-rule="evenodd" clip-rule="evenodd" d="M169 60.882C116.457 60.882 66.2378 70.8318 20.1239 88.95C48.6592 35.9919 104.626 0 169 0C206.507 0 241.161 12.2185 269.197 32.8924C239.985 50.6534 205.687 60.882 169 60.882ZM5.11728 127.563C54.6916 103.666 110.282 90.2733 169 90.2733C214.505 90.2733 256.819 76.6152 292.068 53.1749C306.465 68.4663 318.044 86.4408 325.974 106.269C280.935 135.969 226.986 153.255 169 153.255C108.052 153.255 51.1486 170.569 2.93937 200.548C1.00958 190.327 0 179.781 0 169C0 154.703 1.77523 140.821 5.11728 127.563ZM169 182.646C110.732 182.646 56.5409 200.1 11.3697 230.066C19.0953 249.994 30.4911 268.093 44.7276 283.532C80.2151 259.599 122.976 245.627 169 245.627C227.948 245.627 283.743 232.13 333.464 208.057C336.43 195.52 338 182.443 338 169C338 157.559 336.863 146.383 334.696 135.58C286.565 165.419 229.794 182.646 169 182.646ZM169 275.019C131.665 275.019 96.8047 285.612 67.2599 303.956C95.5633 325.327 130.802 338 169 338C234.442 338 291.197 300.803 319.275 246.398C272.778 264.866 222.075 275.019 169 275.019Z" fill="#29CCC4"/>
<path d="M421.3 200.08L485.92 123.4H423.64V98.5601H519.94V123.4L456.58 200.08H522.1V226H421.3V200.08Z" fill="black"/>
<path d="M538.279 138.52H565.279V226H538.279V138.52ZM536.119 110.98C536.119 106.66 537.619 103 540.619 100C543.739 96.8801 547.459 95.3201 551.779 95.3201C556.099 95.3201 559.759 96.8801 562.759 100C565.879 103 567.439 106.66 567.439 110.98C567.439 115.3 565.879 119.02 562.759 122.14C559.759 125.14 556.099 126.64 551.779 126.64C547.459 126.64 543.739 125.14 540.619 122.14C537.619 119.02 536.119 115.3 536.119 110.98Z" fill="black"/>
<path d="M585.037 89.92H612.037V226H585.037V89.92Z" fill="black"/>
<path d="M697.855 129.7C695.575 126.82 692.455 124.72 688.495 123.4C684.655 121.96 680.995 121.24 677.515 121.24C675.475 121.24 673.375 121.48 671.215 121.96C669.055 122.44 667.015 123.22 665.095 124.3C663.175 125.26 661.615 126.58 660.415 128.26C659.215 129.94 658.615 131.98 658.615 134.38C658.615 138.22 660.055 141.16 662.935 143.2C665.815 145.24 669.415 146.98 673.735 148.42C678.175 149.86 682.915 151.3 687.955 152.74C692.995 154.18 697.675 156.22 701.995 158.86C706.435 161.5 710.095 165.04 712.975 169.48C715.855 173.92 717.295 179.86 717.295 187.3C717.295 194.38 715.975 200.56 713.335 205.84C710.695 211.12 707.095 215.5 702.535 218.98C698.095 222.46 692.875 225.04 686.875 226.72C680.995 228.4 674.755 229.24 668.155 229.24C659.875 229.24 652.195 227.98 645.115 225.46C638.035 222.94 631.435 218.86 625.315 213.22L645.295 191.26C648.175 195.1 651.775 198.1 656.095 200.26C660.535 202.3 665.095 203.32 669.775 203.32C672.055 203.32 674.335 203.08 676.615 202.6C679.015 202 681.115 201.16 682.915 200.08C684.835 199 686.335 197.62 687.415 195.94C688.615 194.26 689.215 192.28 689.215 190C689.215 186.16 687.715 183.16 684.715 181C681.835 178.72 678.175 176.8 673.735 175.24C669.295 173.68 664.495 172.12 659.335 170.56C654.175 169 649.375 166.9 644.935 164.26C640.495 161.62 636.775 158.14 633.775 153.82C630.895 149.5 629.455 143.8 629.455 136.72C629.455 129.88 630.775 123.88 633.415 118.72C636.175 113.56 639.775 109.24 644.215 105.76C648.775 102.28 653.995 99.7 659.875 98.0201C665.755 96.2201 671.815 95.3201 678.055 95.3201C685.255 95.3201 692.215 96.34 698.935 98.38C705.655 100.42 711.715 103.84 717.115 108.64L697.855 129.7Z" fill="black"/>
<path d="M794.374 160.12H770.614V189.28C770.614 191.68 770.734 193.9 770.974 195.94C771.214 197.86 771.754 199.54 772.594 200.98C773.434 202.42 774.694 203.56 776.374 204.4C778.174 205.12 780.514 205.48 783.394 205.48C784.834 205.48 786.694 205.36 788.974 205.12C791.374 204.76 793.174 204.04 794.374 202.96V225.46C791.374 226.54 788.254 227.26 785.014 227.62C781.774 227.98 778.594 228.16 775.474 228.16C770.914 228.16 766.714 227.68 762.874 226.72C759.034 225.76 755.674 224.26 752.794 222.22C749.914 220.06 747.634 217.3 745.954 213.94C744.394 210.58 743.614 206.5 743.614 201.7V160.12H726.334V138.52H743.614V112.6H770.614V138.52H794.374V160.12Z" fill="black"/>
<path d="M808.095 138.52H835.095V152.56H835.455C838.335 147.16 841.755 143.14 845.715 140.5C849.675 137.74 854.655 136.36 860.655 136.36C862.215 136.36 863.775 136.42 865.335 136.54C866.895 136.66 868.335 136.9 869.655 137.26V161.92C867.735 161.32 865.815 160.9 863.895 160.66C862.095 160.3 860.175 160.12 858.135 160.12C852.975 160.12 848.895 160.84 845.895 162.28C842.895 163.72 840.555 165.76 838.875 168.4C837.315 170.92 836.295 173.98 835.815 177.58C835.335 181.18 835.095 185.14 835.095 189.46V226H808.095V138.52Z" fill="black"/>
<path d="M961.031 210.88C956.711 216.4 951.251 220.66 944.651 223.66C938.051 226.66 931.211 228.16 924.131 228.16C917.411 228.16 911.051 227.08 905.051 224.92C899.171 222.76 894.011 219.7 889.571 215.74C885.251 211.66 881.831 206.8 879.311 201.16C876.791 195.52 875.531 189.22 875.531 182.26C875.531 175.3 876.791 169 879.311 163.36C881.831 157.72 885.251 152.92 889.571 148.96C894.011 144.88 899.171 141.76 905.051 139.6C911.051 137.44 917.411 136.36 924.131 136.36C930.371 136.36 936.011 137.44 941.051 139.6C946.211 141.76 950.531 144.88 954.011 148.96C957.611 152.92 960.371 157.72 962.291 163.36C964.211 169 965.171 175.3 965.171 182.26V190.72H902.531C903.611 195.88 905.951 200.02 909.551 203.14C913.151 206.14 917.591 207.64 922.871 207.64C927.311 207.64 931.031 206.68 934.031 204.76C937.151 202.72 939.851 200.14 942.131 197.02L961.031 210.88ZM938.171 172.36C938.291 167.8 936.791 163.9 933.671 160.66C930.551 157.42 926.531 155.8 921.611 155.8C918.611 155.8 915.971 156.28 913.691 157.24C911.411 158.2 909.431 159.46 907.751 161.02C906.191 162.46 904.931 164.2 903.971 166.24C903.131 168.16 902.651 170.2 902.531 172.36H938.171Z" fill="black"/>
<path d="M1036.49 215.02H1036.13C1033.13 219.7 1029.11 223.06 1024.07 225.1C1019.15 227.14 1013.93 228.16 1008.41 228.16C1004.33 228.16 1000.37 227.56 996.531 226.36C992.811 225.28 989.511 223.6 986.631 221.32C983.751 219.04 981.471 216.22 979.791 212.86C978.111 209.5 977.271 205.6 977.271 201.16C977.271 196.12 978.171 191.86 979.971 188.38C981.891 184.9 984.411 182.02 987.531 179.74C990.771 177.46 994.431 175.72 998.511 174.52C1002.59 173.2 1006.79 172.24 1011.11 171.64C1015.55 171.04 1019.93 170.68 1024.25 170.56C1028.69 170.44 1032.77 170.38 1036.49 170.38C1036.49 165.58 1034.75 161.8 1031.27 159.04C1027.91 156.16 1023.89 154.72 1019.21 154.72C1014.77 154.72 1010.69 155.68 1006.97 157.6C1003.37 159.4 1000.13 161.92 997.251 165.16L982.851 150.4C987.891 145.72 993.771 142.24 1000.49 139.96C1007.21 137.56 1014.17 136.36 1021.37 136.36C1029.29 136.36 1035.77 137.38 1040.81 139.42C1045.97 141.34 1050.05 144.22 1053.05 148.06C1056.17 151.9 1058.33 156.64 1059.53 162.28C1060.73 167.8 1061.33 174.22 1061.33 181.54V226H1036.49V215.02ZM1029.83 187.66C1027.79 187.66 1025.21 187.78 1022.09 188.02C1019.09 188.14 1016.15 188.62 1013.27 189.46C1010.51 190.3 1008.11 191.56 1006.07 193.24C1004.15 194.92 1003.19 197.26 1003.19 200.26C1003.19 203.5 1004.57 205.9 1007.33 207.46C1010.09 209.02 1012.97 209.8 1015.97 209.8C1018.61 209.8 1021.13 209.44 1023.53 208.72C1026.05 208 1028.27 206.98 1030.19 205.66C1032.11 204.34 1033.61 202.66 1034.69 200.62C1035.89 198.58 1036.49 196.18 1036.49 193.42V187.66H1029.83Z" fill="black"/>
<path d="M1078.27 138.52H1104.19V150.4H1104.55C1105.39 148.72 1106.59 147.04 1108.15 145.36C1109.71 143.68 1111.57 142.18 1113.73 140.86C1115.89 139.54 1118.35 138.46 1121.11 137.62C1123.87 136.78 1126.87 136.36 1130.11 136.36C1136.23 136.36 1141.63 137.62 1146.31 140.14C1151.11 142.66 1154.71 146.62 1157.11 152.02C1160.23 146.38 1164.01 142.36 1168.45 139.96C1172.89 137.56 1178.35 136.36 1184.83 136.36C1190.71 136.36 1195.63 137.38 1199.59 139.42C1203.67 141.34 1206.85 144.04 1209.13 147.52C1211.53 150.88 1213.21 154.9 1214.17 159.58C1215.25 164.14 1215.79 169.06 1215.79 174.34V226H1188.79V175.06C1188.79 170.98 1187.89 167.5 1186.09 164.62C1184.41 161.62 1181.35 160.12 1176.91 160.12C1173.79 160.12 1171.15 160.66 1168.99 161.74C1166.95 162.7 1165.27 164.08 1163.95 165.88C1162.75 167.68 1161.85 169.78 1161.25 172.18C1160.77 174.58 1160.53 177.1 1160.53 179.74V226H1133.53V179.74C1133.53 178.18 1133.47 176.26 1133.35 173.98C1133.23 171.7 1132.81 169.54 1132.09 167.5C1131.37 165.46 1130.17 163.72 1128.49 162.28C1126.93 160.84 1124.59 160.12 1121.47 160.12C1117.99 160.12 1115.17 160.78 1113.01 162.1C1110.85 163.3 1109.17 164.98 1107.97 167.14C1106.89 169.18 1106.17 171.52 1105.81 174.16C1105.45 176.8 1105.27 179.56 1105.27 182.44V226H1078.27V138.52Z" fill="black"/>
</svg>
