<svg width="338" height="338" viewBox="0 0 338 338" fill="none" xmlns="http://www.w3.org/2000/svg">
<path fill-rule="evenodd" clip-rule="evenodd" d="M169 60.882C116.457 60.882 66.2378 70.8318 20.1239 88.95C48.6592 35.9919 104.626 0 169 0C206.507 0 241.161 12.2185 269.197 32.8924C239.985 50.6534 205.687 60.882 169 60.882ZM5.11728 127.563C54.6916 103.666 110.282 90.2733 169 90.2733C214.505 90.2733 256.819 76.6152 292.068 53.1749C306.465 68.4663 318.044 86.4408 325.974 106.269C280.935 135.969 226.986 153.255 169 153.255C108.052 153.255 51.1486 170.569 2.93937 200.548C1.00958 190.327 0 179.781 0 169C0 154.703 1.77523 140.821 5.11728 127.563ZM169 182.646C110.732 182.646 56.5409 200.1 11.3697 230.066C19.0953 249.994 30.4911 268.093 44.7276 283.532C80.2151 259.599 122.976 245.627 169 245.627C227.948 245.627 283.743 232.13 333.464 208.057C336.43 195.52 338 182.443 338 169C338 157.559 336.863 146.383 334.696 135.58C286.565 165.419 229.794 182.646 169 182.646ZM169 275.019C131.665 275.019 96.8047 285.612 67.2599 303.956C95.5633 325.327 130.802 338 169 338C234.442 338 291.197 300.803 319.275 246.398C272.778 264.866 222.075 275.019 169 275.019Z" fill="#29CCC4"/>
</svg>
