<svg width="256" height="256" viewBox="0 0 256 256" fill="none" xmlns="http://www.w3.org/2000/svg">
<g clip-path="url(#clip0)">
<path d="M340 -0.385742H-101.333V255.904H340V-0.385742Z" fill="#00008B"/>
<path d="M-101.333 -0.385742L119.333 127.372L-101.333 -0.385742ZM119.333 -0.385742L-101.333 127.372Z" fill="black"/>
<path fill-rule="evenodd" clip-rule="evenodd" d="M-15.352 63.4933L-106 10.9109L-96.1259 -12L9.33338 49.174L114.793 -12L124.667 10.9109L34.0187 63.4933L124.667 116.076L114.793 138.987L9.33338 77.8126L-96.1259 138.987L-106 116.076L-15.352 63.4933Z" fill="white"/>
<path d="M-101.333 -0.385742L119.333 127.372L-101.333 -0.385742ZM119.333 -0.385742L-101.333 127.372Z" fill="black"/>
<path fill-rule="evenodd" clip-rule="evenodd" d="M-7.45378 63.4932L-104.667 7.13396L-98.0851 -8.12866L9.00008 53.954L116.085 -8.12866L122.667 7.13396L25.454 63.4932L122.667 119.852L116.085 135.115L9.00008 73.0323L-98.0851 135.115L-104.667 119.852L-7.45378 63.4932Z" fill="#FF0000"/>
<path d="M8.95237 -0.385742V149.052V-0.385742ZM-101.333 63.6591H156Z" fill="black"/>
<path fill-rule="evenodd" clip-rule="evenodd" d="M27.3333 85.0074V149.052H-9.42858V85.0074H-101.333V42.3108H-9.42858V-0.385742H27.3333V42.3108H156V85.0074H27.3333Z" fill="white"/>
<path d="M8.95237 -0.385742V149.052V-0.385742ZM-101.333 63.6591H156Z" fill="black"/>
<path fill-rule="evenodd" clip-rule="evenodd" d="M19.981 76.4681V149.052H-2.07621V76.4681H-101.333V50.8501H-2.07621V-0.385742H19.981V50.8501H156V76.4681H19.981Z" fill="#FF0000"/>
<path d="M-101.333 127.953H119.667V-0.385742H193.333V170.732H-101.333V127.953Z" fill="#00008B"/>
<path d="M230 194.736L233.033 205.725L242.296 201.637L236.815 211.252L245.333 217.143L235.465 218.144L236.824 229.579L230 221.211L223.176 229.579L224.535 218.144L214.667 217.143L223.185 211.252L217.704 201.637L226.967 205.725L230 194.736Z" fill="white"/>
<path d="M9.33346 155.247L14.3443 173.319L29.6492 166.595L20.5927 182.407L34.6668 192.095L18.3627 193.74L20.6079 212.544L9.33346 198.784L-1.94094 212.544L0.304233 193.74L-15.9999 192.095L-1.9258 182.407L-10.9823 166.595L4.32262 173.319L9.33346 155.247Z" fill="white"/>
<path d="M174.667 93.3035L177.699 104.293L186.963 100.205L181.481 109.82L190 115.711L180.132 116.712L181.491 128.147L174.667 119.779L167.843 128.147L169.202 116.712L159.333 115.711L167.852 109.82L162.37 100.205L171.634 104.293L174.667 93.3035Z" fill="white"/>
<path d="M230 23.6174L233.033 34.607L242.296 30.5185L236.815 40.1338L245.333 46.0251L235.465 47.0256L236.824 58.4605L230 50.0928L223.176 58.4605L224.535 47.0256L214.667 46.0251L223.185 40.1338L217.704 30.5185L226.967 34.607L230 23.6174Z" fill="white"/>
<path d="M252 127.372L254.381 134.225L260.667 134.766L255.852 139.542L257.356 146.73L252 142.828L246.644 146.73L248.148 139.542L243.333 134.766L249.62 134.225L252 127.372Z" fill="white"/>
</g>
<defs>
<clipPath id="clip0">
<rect width="256" height="256" fill="white"/>
</clipPath>
</defs>
</svg>
