<svg width="256" height="256" viewBox="0 0 256 256" fill="none" xmlns="http://www.w3.org/2000/svg">
<rect width="256" height="256" fill="#DE970D"/>
<path d="M85 70.2124H119.673V47H133.395V70.2124H136.237C150.204 70.2124 160.137 74.3788 166.038 82.7114C169.502 87.6353 171.235 93.3166 171.235 99.7555C171.235 107.277 169.096 113.445 164.82 118.261C162.6 120.804 159.407 123.13 155.238 125.24C161.355 127.567 165.93 130.191 168.961 133.113C174.32 138.308 177 145.477 177 154.621C177 162.305 174.591 169.258 169.773 175.48C162.573 184.787 151.124 189.44 135.425 189.44H133.395V209H119.673V189.44H85V70.2124ZM135.669 175.642C145.575 175.642 152.64 172.775 156.862 167.039C159.515 163.414 160.841 159.031 160.841 153.891C160.841 145.233 156.971 139.336 149.229 136.197C145.224 134.574 139.946 133.735 133.395 133.681V175.642H135.669ZM100.834 175.642H119.673V133.681H100.834V175.642ZM100.834 120.614H119.673V83.6854H100.834V120.614ZM146.144 117.774C152.099 114.798 155.076 109.441 155.076 101.703C155.076 93.9118 151.909 88.6633 145.575 85.9579C142.652 84.7134 138.592 83.983 133.395 83.7665V120.533C138.7 120.317 142.95 119.397 146.144 117.774Z" fill="white"/>
</svg>
