<svg width="256" height="256" viewBox="0 0 256 256" fill="none" xmlns="http://www.w3.org/2000/svg">
<g clip-path="url(#clip0)">
<path d="M-60 0H33.75L37.6172 5.28H217.383L221.25 0H315V256H221.25L217.383 250.72H37.6172L33.75 256H-60V0Z" fill="#FF0000"/>
<path d="M33.75 0H221.25V256H33.75V0ZM131.016 236.267L129.258 190.24C129.232 189.483 129.331 188.728 129.548 188.03C129.764 187.333 130.093 186.71 130.509 186.209C130.925 185.707 131.418 185.339 131.952 185.132C132.486 184.926 133.047 184.885 133.594 185.013L167.148 193.067L162.617 176C162.433 175.321 162.41 174.58 162.55 173.882C162.69 173.184 162.987 172.563 163.398 172.107L200.156 131.467L191.875 126.187C191.316 125.826 190.872 125.199 190.628 124.423C190.383 123.647 190.354 122.776 190.547 121.973L197.812 91.4667L176.641 97.6C176.067 97.7633 175.47 97.6507 174.95 97.2813C174.43 96.9119 174.02 96.3085 173.789 95.5733L169.688 82.4L153.164 106.613C152.786 107.157 152.289 107.52 151.748 107.646C151.207 107.772 150.65 107.655 150.162 107.312C149.673 106.97 149.279 106.42 149.039 105.746C148.798 105.072 148.724 104.31 148.828 103.573L156.797 47.4667L144.023 57.5467C143.724 57.7866 143.391 57.94 143.046 57.9972C142.701 58.0544 142.351 58.0143 142.017 57.8793C141.684 57.7443 141.375 57.5173 141.108 57.2124C140.842 56.9075 140.624 56.5311 140.469 56.1067L127.5 21.3333L114.531 56.1067C114.376 56.5311 114.158 56.9075 113.892 57.2124C113.625 57.5173 113.316 57.7443 112.983 57.8793C112.649 58.0143 112.299 58.0544 111.954 57.9972C111.609 57.94 111.276 57.7866 110.977 57.5467L98.2031 47.4667L106.172 103.573C106.276 104.31 106.202 105.072 105.961 105.746C105.721 106.42 105.327 106.97 104.838 107.312C104.35 107.655 103.793 107.772 103.252 107.646C102.711 107.52 102.214 107.157 101.836 106.613L85.3125 82.4L81.2109 95.5733C80.9799 96.3085 80.5697 96.9119 80.05 97.2813C79.5303 97.6507 78.933 97.7633 78.3594 97.6L57.1875 91.4667L64.4531 121.973C64.6457 122.776 64.617 123.647 64.3724 124.423C64.1279 125.199 63.6843 125.826 63.125 126.187L54.8438 131.467L91.6016 172.107C92.0132 172.563 92.31 173.184 92.4501 173.882C92.5902 174.58 92.5667 175.321 92.3828 176L87.8516 193.067L121.406 185.013C121.953 184.885 122.514 184.926 123.048 185.132C123.582 185.339 124.075 185.707 124.491 186.209C124.907 186.71 125.236 187.333 125.452 188.03C125.669 188.728 125.768 189.483 125.742 190.24L123.984 236.267H131.016Z" fill="white"/>
</g>
<defs>
<clipPath id="clip0">
<rect width="256" height="256" fill="white"/>
</clipPath>
</defs>
</svg>
