<svg width="256" height="256" viewBox="0 0 256 256" fill="none" xmlns="http://www.w3.org/2000/svg">
<g clip-path="url(#clip0)">
<path d="M384 0H0V256H384V0Z" fill="#EE1C25"/>
<path d="M64.0001 25.6001L86.571 95.0663L27.4795 52.1338H100.521L41.4291 95.0663L64.0001 25.6001Z" fill="#FFFF00"/>
<path d="M133.009 13.8205L130.871 38.0736L118.345 17.1962L140.751 26.7235L117.024 32.1854L133.009 13.8205Z" fill="#FFFF00"/>
<path d="M162.787 42.2875L151.406 63.8105L147.963 39.7082L164.915 57.1836L140.929 53.0102L162.787 42.2875Z" fill="#FFFF00"/>
<path d="M165.624 85.2105L146.453 100.218L153.141 76.8081L161.49 99.6789L141.293 86.0834L165.624 85.2105Z" fill="#FFFF00"/>
<path d="M132.516 103.223L131.386 127.544L118.005 107.204L140.786 115.794L117.307 122.235L132.516 103.223Z" fill="#FFFF00"/>
</g>
<defs>
<clipPath id="clip0">
<rect width="256" height="256" fill="white"/>
</clipPath>
</defs>
</svg>
