<svg width="256" height="256" viewBox="0 0 256 256" fill="none" xmlns="http://www.w3.org/2000/svg">
<rect width="256" height="256" fill="#0D61DE"/>
<path d="M71 153.139L74.4521 136.595H94.7534C94.5342 133.851 94.4247 130.971 94.4247 127.953C94.4247 125.319 94.5068 122.74 94.6712 120.216H71L74.4521 103.672H96.9726C99.274 93.8501 103.192 85.6194 108.726 78.9799C117 68.9933 127.548 64 140.37 64C157.466 64 169.986 70.6943 177.932 84.083C182.315 91.6003 184.671 99.1452 185 106.717H163.712C162.342 100.901 160.562 96.5113 158.37 93.5483C154.534 88.2806 148.808 85.6468 141.192 85.6468C133.466 85.6468 127.356 89.3781 122.863 96.8406C121.658 98.8708 120.616 101.148 119.74 103.672H152.37L148.918 120.216H116.452C116.288 122.795 116.205 125.511 116.205 128.364C116.205 131.272 116.288 134.016 116.452 136.595H146.863L143.411 153.139H120.151C121.027 155.279 122.068 157.227 123.274 158.983C127.986 165.732 133.986 169.106 141.274 169.106C148.726 169.106 154.397 166.198 158.288 160.382C160.479 157.254 162.288 152.563 163.712 146.307H184.753C182.89 159.531 178.178 170.286 170.616 178.572C163.055 186.857 153.356 191 141.521 191C126.89 191 115.384 185.403 107 174.209C102.616 168.338 99.3836 161.315 97.3014 153.139H71Z" fill="white"/>
</svg>
