<svg width="256" height="256" viewBox="0 0 256 256" fill="none" xmlns="http://www.w3.org/2000/svg">
<g clip-path="url(#clip0)">
<g clip-path="url(#clip1)">
<path d="M-64 0H320V256H-64V0Z" fill="#FF9933"/>
<path d="M-64 85.3333H320V256H-64V85.3333Z" fill="white"/>
<path d="M-64 170.667H320V256H-64V170.667Z" fill="#128807"/>
<path d="M128 162.133C146.851 162.133 162.133 146.851 162.133 128C162.133 109.149 146.851 93.8667 128 93.8667C109.149 93.8667 93.8667 109.149 93.8667 128C93.8667 146.851 109.149 162.133 128 162.133Z" fill="#000088"/>
<path d="M128 157.867C144.495 157.867 157.867 144.495 157.867 128C157.867 111.505 144.495 98.1334 128 98.1334C111.505 98.1334 98.1334 111.505 98.1334 128C98.1334 144.495 111.505 157.867 128 157.867Z" fill="white"/>
<path d="M128 133.973C131.299 133.973 133.973 131.299 133.973 128C133.973 124.701 131.299 122.027 128 122.027C124.701 122.027 122.027 124.701 122.027 128C122.027 131.299 124.701 133.973 128 133.973Z" fill="#000088"/>
<path d="M157.416 133.379C158.234 133.487 158.984 132.911 159.092 132.093C159.199 131.276 158.624 130.525 157.806 130.418C156.988 130.31 156.238 130.886 156.131 131.703C156.023 132.521 156.599 133.271 157.416 133.379Z" fill="#000088"/>
<path d="M128 157.867L129.024 139.947L128 131.413L126.976 139.947L128 157.867Z" fill="#000088"/>
</g>
</g>
<defs>
<clipPath id="clip0">
<rect width="256" height="256" fill="white"/>
</clipPath>
<clipPath id="clip1">
<rect width="384" height="256" fill="white" transform="translate(-64)"/>
</clipPath>
</defs>
</svg>
