<svg width="256" height="256" viewBox="0 0 256 256" fill="none" xmlns="http://www.w3.org/2000/svg">
<g clip-path="url(#clip0)">
<g clip-path="url(#clip1)">
<path d="M-79 0H448V263H-79V0Z" fill="white"/>
<path d="M448 122.107H-60.1786M-60.1786 9.39282H448H-60.1786ZM448 46.9642H-60.1786H448ZM-60.1786 84.5357H448H-60.1786Z" stroke="#CC0000" stroke-width="42.8571"/>
<path d="M-79 0H184.5V159.679H-79V0Z" fill="#000066"/>
<path d="M-79 234.822H448M-79 159.679H448H-79ZM448 197.25H-79H448Z" stroke="#CC0000" stroke-width="42.8571"/>
<path d="M85.6875 28.1785L89.8831 56.8267L106.117 32.8358L97.4116 60.4665L122.468 45.8684L102.627 67.0023L131.565 64.6932L104.509 75.1428L131.565 85.5924L102.627 83.2833L122.468 104.417L97.4116 89.8191L106.117 117.45L89.8831 93.4589L85.6875 122.107L81.4918 93.4589L65.2584 117.45L73.9633 89.8191L48.9073 104.417L68.7482 83.2833L39.8102 85.5924L66.866 75.1428L39.8102 64.6932L68.7482 67.0023L48.9073 45.8684L73.9633 60.4665L65.2584 32.8358L81.4918 56.8267L85.6875 28.1785ZM62.1607 29.3526C54.5194 25.9686 46.1523 24.5432 37.8191 25.2058C29.4858 25.8684 21.4504 28.598 14.4423 33.1468C7.43418 37.6956 1.67543 43.9195 -2.31111 51.2534C-6.29765 58.5874 -8.38572 66.799 -8.38572 75.1428C-8.38572 83.4866 -6.29765 91.6982 -2.31111 99.0322C1.67543 106.366 7.43418 112.59 14.4423 117.139C21.4504 121.688 29.4858 124.417 37.8191 125.08C46.1523 125.742 54.5194 124.317 62.1607 120.933C53.7231 126.975 43.7793 130.578 33.4231 131.345C23.0668 132.112 12.6992 130.014 3.46038 125.281C-5.77843 120.548 -13.5305 113.364 -18.9434 104.518C-24.3562 95.6721 -27.2201 85.5078 -27.2201 75.1428C-27.2201 64.7778 -24.3562 54.6135 -18.9434 45.7678C-13.5305 36.9221 -5.77843 29.7376 3.46038 25.0046C12.6992 20.2715 23.0668 18.1731 33.4231 18.9402C43.7793 19.7073 53.7231 23.3102 62.1607 29.3526V29.3526Z" fill="#FFCC00"/>
</g>
</g>
<defs>
<clipPath id="clip0">
<rect width="256" height="256" fill="white"/>
</clipPath>
<clipPath id="clip1">
<rect width="527" height="263" fill="white" transform="translate(-79)"/>
</clipPath>
</defs>
</svg>
