<svg width="256" height="256" viewBox="0 0 256 256" fill="none" xmlns="http://www.w3.org/2000/svg">
<g clip-path="url(#clip0)">
<g clip-path="url(#clip1)">
<path d="M384 0H-128V256H384V0Z" fill="#012169"/>
<path d="M-128 0L128 128L-128 0ZM-128 128L128 0Z" fill="black"/>
<path fill-rule="evenodd" clip-rule="evenodd" d="M-28.6216 63.9999L-133.724 11.4486L-122.276 -11.4487L0.000105352 49.6891L122.276 -11.4487L133.724 11.4486L28.6218 63.9999L133.724 116.551L122.276 139.449L0.000105352 78.3108L-122.276 139.449L-133.724 116.551L-28.6216 63.9999Z" fill="white"/>
<path d="M-128 0L128 128L-128 0ZM-128 128L128 0Z" fill="black"/>
<path fill-rule="evenodd" clip-rule="evenodd" d="M-19.0811 63.9999L-131.816 7.63232L-124.184 -7.63257L6.50408e-05 54.4593L124.184 -7.63257L131.816 7.63232L19.0812 63.9999L131.816 120.367L124.184 135.632L6.50408e-05 73.5404L-124.184 135.632L-131.816 120.367L-19.0811 63.9999Z" fill="#C8102E"/>
<path d="M3.09944e-06 0V128V0ZM-128 64H128Z" fill="black"/>
<path fill-rule="evenodd" clip-rule="evenodd" d="M21.3333 85.3333V128H-21.3333V85.3333H-128V42.6667H-21.3333V0H21.3333V42.6667H128V85.3333H21.3333Z" fill="white"/>
<path d="M3.09944e-06 0V128V0ZM-128 64H128Z" fill="black"/>
<path fill-rule="evenodd" clip-rule="evenodd" d="M12.8 76.8V128H-12.8V76.8H-128V51.2H-12.8V0H12.8V51.2H128V76.8H12.8Z" fill="#C8102E"/>
<path d="M258.568 50.447L266.444 46.9708L261.714 55.2688L261.487 55.6669L261.864 55.9276L269.266 61.0471L260.748 61.9108L260.242 61.9621L260.302 62.4672L261.458 72.1942L255.721 65.1594L255.333 64.6842L254.946 65.1594L249.209 72.1942L250.365 62.4672L250.425 61.9621L249.919 61.9108L241.4 61.0471L248.803 55.9276L249.18 55.6669L248.953 55.2688L244.222 46.9708L252.099 50.447L252.628 50.6808L252.782 50.1226L255.333 40.8795L257.884 50.1226L258.038 50.6808L258.568 50.447Z" fill="#C8102E" stroke="white"/>
<path d="M189.568 104.447L197.444 100.971L192.714 109.269L192.487 109.667L192.864 109.928L200.266 115.047L191.748 115.911L191.242 115.962L191.302 116.467L192.458 126.194L186.721 119.159L186.333 118.684L185.946 119.159L180.209 126.194L181.365 116.467L181.425 115.962L180.919 115.911L172.4 115.047L179.803 109.928L180.18 109.667L179.953 109.269L175.222 100.971L183.099 104.447L183.628 104.681L183.782 104.123L186.333 94.8795L188.884 104.123L189.038 104.681L189.568 104.447Z" fill="#C8102E" stroke="white"/>
<path d="M258.758 181.281L269.759 176.382L263.176 188.033L262.952 188.429L263.325 188.689L273.61 195.865L261.756 197.078L261.251 197.13L261.31 197.634L262.924 211.34L254.889 201.398L254.5 200.917L254.111 201.398L246.076 211.34L247.69 197.634L247.749 197.13L247.244 197.078L235.39 195.865L245.675 188.689L246.048 188.429L245.824 188.033L239.241 176.382L250.242 181.281L250.774 181.518L250.927 180.956L254.5 167.895L258.073 180.956L258.226 181.518L258.758 181.281Z" fill="#C8102E" stroke="white"/>
</g>
</g>
<defs>
<clipPath id="clip0">
<rect width="256" height="256" fill="white"/>
</clipPath>
<clipPath id="clip1">
<rect width="512" height="256" fill="white" transform="translate(-128)"/>
</clipPath>
</defs>
</svg>
