<svg width="256" height="256" viewBox="0 0 256 256" fill="none" xmlns="http://www.w3.org/2000/svg">
<rect width="256" height="256" fill="#0DDE2E"/>
<path d="M132.584 167.08C136.799 166.547 139.867 165.587 141.788 164.2C145.149 161.747 146.83 157.507 146.83 151.48C146.83 146.893 145.256 143.267 142.108 140.6C140.241 139.053 137.066 137.453 132.584 135.8V167.08ZM124.981 83.48C120.338 83.5867 116.897 84.84 114.656 87.24C112.415 89.5867 111.294 92.8133 111.294 96.92C111.294 101.4 112.975 104.947 116.337 107.56C118.204 109 121.085 110.333 124.981 111.56V83.48ZM132.744 201H124.981V185.08C114.469 183.907 106.626 181.613 101.45 178.2C92.3261 172.067 87.8441 161.613 88.0041 146.84H109.614C110.361 153.56 111.401 158.067 112.735 160.36C114.816 163.933 118.898 166.253 124.981 167.32V133.16L118.498 131.24C108.306 128.253 101.103 124.093 96.8881 118.76C92.7262 113.427 90.6453 107 90.6453 99.48C90.6453 94.52 91.4457 90.0133 93.0464 85.96C94.7004 81.9067 96.9948 78.4133 99.9294 75.48C103.718 71.6933 107.933 69.08 112.575 67.64C115.403 66.7333 119.538 66.0667 124.981 65.64V55H132.584V65.8C141.281 66.4933 148.111 68.6267 153.073 72.2C162.09 77.9067 166.759 87.16 167.079 99.96H146.03C145.603 95.2133 144.803 91.7467 143.629 89.56C141.601 85.7733 137.92 83.6933 132.584 83.32V113.8C145.283 118.173 153.82 122.04 158.195 125.4C165.398 131 169 138.893 169 149.08C169 162.52 164.064 172.28 154.193 178.36C148.164 182.093 141.014 184.28 132.744 184.92V201Z" fill="white"/>
</svg>
